<svg xmlns="http://www.w3.org/2000/svg" xmlns:xlink="http://www.w3.org/1999/xlink" width="500" zoomAndPan="magnify" viewBox="0 0 375 374.999991" height="500" preserveAspectRatio="xMidYMid meet" version="1.0"><defs><g/><clipPath id="1c429511aa"><path d="M 135 81 L 248 81 L 248 181.78125 L 135 181.78125 Z M 135 81 " clip-rule="nonzero"/></clipPath><clipPath id="78b9d52c62"><path d="M 142 65.53125 L 199 65.53125 L 199 126 L 142 126 Z M 142 65.53125 " clip-rule="nonzero"/></clipPath><clipPath id="51d8ed2aef"><path d="M 191 146 L 222.074219 146 L 222.074219 177.085938 L 191 177.085938 Z M 191 146 " clip-rule="nonzero"/></clipPath><clipPath id="26fc111d74"><path d="M 174.824219 144 L 183 144 L 183 147 L 174.824219 147 Z M 174.824219 144 " clip-rule="nonzero"/></clipPath><clipPath id="fbd552f545"><path d="M 189 129.835938 L 192 129.835938 L 192 138 L 189 138 Z M 189 129.835938 " clip-rule="nonzero"/></clipPath></defs><g clip-path="url(#1c429511aa)"><path fill="#198ad7" d="M 156.515625 162.933594 C 155.28125 163.746094 154.9375 165.410156 155.75 166.644531 L 164.675781 180.203125 C 165.070312 180.796875 165.679688 181.210938 166.375 181.355469 C 166.554688 181.390625 166.734375 181.410156 166.914062 181.410156 C 167.433594 181.410156 167.949219 181.257812 168.390625 180.96875 L 246.71875 129.402344 C 247.3125 129.011719 247.726562 128.398438 247.871094 127.703125 C 248.011719 127.007812 247.875 126.28125 247.484375 125.6875 L 238.558594 112.128906 C 238.167969 111.535156 237.554688 111.121094 236.859375 110.980469 C 236.164062 110.839844 235.441406 110.972656 234.84375 111.367188 C 233.722656 112.105469 232.417969 112.496094 231.082031 112.496094 C 228.761719 112.496094 226.617188 111.339844 225.34375 109.40625 C 223.261719 106.246094 224.140625 101.984375 227.300781 99.902344 C 227.894531 99.511719 228.308594 98.902344 228.453125 98.207031 C 228.59375 97.511719 228.457031 96.785156 228.066406 96.191406 L 219.140625 82.632812 C 218.324219 81.398438 216.664062 81.054688 215.425781 81.871094 L 137.097656 133.4375 C 135.863281 134.25 135.519531 135.914062 136.332031 137.148438 L 145.257812 150.707031 C 145.648438 151.300781 146.261719 151.714844 146.957031 151.859375 C 147.652344 152 148.375 151.863281 148.96875 151.472656 C 150.09375 150.734375 151.398438 150.339844 152.734375 150.339844 C 155.054688 150.339844 157.203125 151.496094 158.472656 153.429688 C 160.554688 156.589844 159.675781 160.855469 156.515625 162.933594 Z M 152.734375 144.980469 C 151.253906 144.980469 149.796875 145.25 148.425781 145.769531 L 142.285156 136.441406 L 196.875 100.5 L 197.609375 101.617188 C 197.996094 102.207031 198.636719 102.523438 199.289062 102.523438 C 199.671875 102.523438 200.054688 102.417969 200.394531 102.191406 C 201.320312 101.582031 201.578125 100.335938 200.96875 99.410156 L 200.230469 98.289062 L 216.136719 87.820312 L 222.277344 97.148438 C 218.394531 101.171875 217.667969 107.496094 220.863281 112.355469 C 223.132812 115.800781 226.953125 117.855469 231.082031 117.855469 C 232.5625 117.855469 234.019531 117.585938 235.390625 117.070312 L 241.53125 126.398438 L 225.628906 136.867188 L 224.890625 135.75 C 224.28125 134.820312 223.039062 134.570312 222.109375 135.175781 C 221.183594 135.785156 220.925781 137.03125 221.535156 137.960938 L 222.273438 139.078125 L 167.679688 175.019531 L 161.539062 165.691406 C 165.417969 161.667969 166.148438 155.34375 162.949219 150.484375 C 160.683594 147.039062 156.863281 144.980469 152.734375 144.980469 Z M 152.734375 144.980469 " fill-opacity="1" fill-rule="nonzero"/></g><path fill="#198ad7" d="M 216.75 130.691406 C 217.136719 131.277344 217.777344 131.59375 218.429688 131.59375 C 218.808594 131.59375 219.195312 131.488281 219.535156 131.265625 C 220.460938 130.652344 220.71875 129.40625 220.109375 128.480469 L 215.320312 121.210938 C 214.710938 120.285156 213.464844 120.03125 212.539062 120.640625 C 211.613281 121.25 211.355469 122.496094 211.964844 123.421875 Z M 216.75 130.691406 " fill-opacity="1" fill-rule="nonzero"/><path fill="#198ad7" d="M 207.179688 116.15625 C 207.566406 116.742188 208.207031 117.058594 208.859375 117.058594 C 209.238281 117.058594 209.625 116.953125 209.964844 116.726562 C 210.890625 116.117188 211.148438 114.871094 210.539062 113.945312 L 205.753906 106.675781 C 205.144531 105.75 203.898438 105.496094 202.96875 106.101562 C 202.042969 106.714844 201.785156 107.960938 202.394531 108.886719 Z M 207.179688 116.15625 " fill-opacity="1" fill-rule="nonzero"/><g clip-path="url(#78b9d52c62)"><path fill="#198ad7" d="M 194.257812 78.25 C 195.011719 76.976562 194.597656 75.332031 193.324219 74.578125 L 179.378906 66.273438 C 178.113281 65.519531 176.476562 65.929688 175.714844 67.183594 C 175.507812 67.527344 154.894531 101.527344 142.921875 121.636719 C 142.164062 122.90625 142.582031 124.550781 143.855469 125.308594 C 144.285156 125.566406 144.757812 125.6875 145.222656 125.6875 C 146.136719 125.6875 147.027344 125.21875 147.527344 124.378906 C 153.117188 114.992188 160.589844 102.574219 166.988281 91.972656 L 167.785156 92.445312 C 168.109375 92.636719 168.460938 92.730469 168.8125 92.730469 C 169.496094 92.730469 170.164062 92.378906 170.539062 91.746094 C 171.109375 90.792969 170.796875 89.558594 169.84375 88.992188 L 169.066406 88.53125 C 173.402344 81.347656 177.039062 75.339844 178.921875 72.238281 L 188.53125 77.960938 C 187.84375 80.046875 187.757812 82.28125 188.257812 84.464844 C 188.257812 84.488281 188.265625 84.511719 188.269531 84.53125 C 188.289062 84.628906 188.296875 84.726562 188.320312 84.824219 C 188.328125 84.855469 188.347656 84.882812 188.355469 84.914062 C 188.363281 84.945312 188.367188 84.976562 188.378906 85.007812 C 189.609375 88.664062 192.066406 91.234375 195.289062 92.253906 C 195.558594 92.335938 195.828125 92.378906 196.097656 92.378906 C 197.234375 92.378906 198.289062 91.644531 198.648438 90.503906 C 199.09375 89.09375 198.3125 87.585938 196.902344 87.140625 C 195.378906 86.664062 194.179688 85.335938 193.5 83.40625 C 193.0625 81.640625 193.324219 79.8125 194.257812 78.25 Z M 194.257812 78.25 " fill-opacity="1" fill-rule="nonzero"/></g><path fill="#198ad7" d="M 135.332031 139.753906 C 134.054688 138.996094 132.414062 139.417969 131.65625 140.6875 C 129.839844 143.742188 127.742188 147.738281 127.652344 147.90625 C 126.992188 149.167969 127.433594 150.726562 128.65625 151.453125 L 142.605469 159.757812 C 143.023438 160.007812 143.496094 160.136719 143.976562 160.136719 C 144.195312 160.136719 144.417969 160.109375 144.632812 160.054688 C 145.324219 159.878906 145.914062 159.4375 146.277344 158.824219 C 146.578125 158.324219 146.9375 157.863281 147.347656 157.457031 C 148.398438 156.417969 148.40625 154.71875 147.367188 153.667969 C 146.324219 152.617188 144.628906 152.609375 143.574219 153.648438 C 143.480469 153.742188 143.390625 153.835938 143.296875 153.933594 L 133.597656 148.15625 C 134.351562 146.765625 135.355469 144.949219 136.261719 143.429688 C 137.019531 142.15625 136.601562 140.511719 135.332031 139.753906 Z M 135.332031 139.753906 " fill-opacity="1" fill-rule="nonzero"/><path fill="#198ad7" d="M 175.347656 92.269531 L 173.246094 95.699219 C 173.246094 95.699219 177.839844 98.511719 178.703125 99.027344 C 179.027344 99.21875 179.378906 99.308594 179.730469 99.308594 C 180.414062 99.308594 181.082031 98.957031 181.457031 98.328125 C 182.027344 97.375 181.714844 96.140625 180.757812 95.574219 C 179.902344 95.0625 175.347656 92.273438 175.347656 92.269531 Z M 175.347656 92.269531 " fill-opacity="1" fill-rule="nonzero"/><g clip-path="url(#51d8ed2aef)"><path fill="#000000" d="M 212.898438 163.480469 C 212.636719 163.21875 212.503906 162.847656 212.542969 162.472656 C 212.578125 162.097656 212.78125 161.765625 213.09375 161.550781 L 222.042969 155.621094 L 191.425781 146.433594 L 200.613281 177.054688 L 206.546875 168.097656 C 206.753906 167.785156 207.089844 167.585938 207.464844 167.546875 C 207.835938 167.511719 208.210938 167.640625 208.472656 167.910156 L 216.109375 175.539062 C 216.597656 176.027344 217.390625 176.027344 217.878906 175.539062 L 220.535156 172.886719 C 220.773438 172.648438 220.902344 172.335938 220.902344 172.003906 C 220.902344 171.664062 220.773438 171.351562 220.535156 171.113281 Z M 212.898438 163.480469 " fill-opacity="1" fill-rule="nonzero"/></g><path fill="#000000" d="M 181.144531 134.386719 C 180.65625 133.898438 179.863281 133.898438 179.375 134.386719 C 178.886719 134.875 178.886719 135.667969 179.375 136.15625 L 182.914062 139.699219 C 183.160156 139.941406 183.480469 140.066406 183.796875 140.066406 C 184.117188 140.066406 184.4375 139.941406 184.679688 139.699219 C 185.167969 139.210938 185.167969 138.414062 184.679688 137.925781 Z M 181.144531 134.386719 " fill-opacity="1" fill-rule="nonzero"/><path fill="#000000" d="M 197.078125 140.0625 C 197.398438 140.0625 197.714844 139.9375 197.960938 139.691406 L 201.503906 136.148438 C 201.992188 135.660156 201.992188 134.867188 201.503906 134.378906 C 201.015625 133.890625 200.21875 133.890625 199.730469 134.378906 L 196.1875 137.921875 C 195.703125 138.410156 195.703125 139.203125 196.1875 139.691406 C 196.441406 139.941406 196.757812 140.0625 197.078125 140.0625 Z M 197.078125 140.0625 " fill-opacity="1" fill-rule="nonzero"/><path fill="#000000" d="M 182.914062 151.199219 L 179.375 154.742188 C 178.886719 155.230469 178.886719 156.027344 179.375 156.515625 C 179.617188 156.757812 179.9375 156.882812 180.253906 156.882812 C 180.574219 156.882812 180.894531 156.757812 181.136719 156.515625 L 184.679688 152.972656 C 185.167969 152.484375 185.167969 151.6875 184.679688 151.199219 C 184.199219 150.710938 183.402344 150.710938 182.914062 151.199219 Z M 182.914062 151.199219 " fill-opacity="1" fill-rule="nonzero"/><g clip-path="url(#26fc111d74)"><path fill="#000000" d="M 182.300781 145.449219 C 182.300781 144.761719 181.738281 144.199219 181.050781 144.199219 L 176.042969 144.199219 C 175.355469 144.199219 174.792969 144.761719 174.792969 145.449219 C 174.792969 146.136719 175.355469 146.703125 176.042969 146.703125 L 181.050781 146.703125 C 181.746094 146.703125 182.300781 146.136719 182.300781 145.449219 Z M 182.300781 145.449219 " fill-opacity="1" fill-rule="nonzero"/></g><g clip-path="url(#fbd552f545)"><path fill="#000000" d="M 191.691406 131.054688 C 191.691406 130.367188 191.125 129.804688 190.4375 129.804688 C 189.75 129.804688 189.1875 130.367188 189.1875 131.054688 L 189.1875 136.0625 C 189.1875 136.75 189.75 137.3125 190.4375 137.3125 C 191.125 137.3125 191.691406 136.75 191.691406 136.0625 Z M 191.691406 131.054688 " fill-opacity="1" fill-rule="nonzero"/></g><g fill="#000000" fill-opacity="1"><g transform="translate(67.21011, 241.001439)"><g><path d="M 1.75 -6.59375 L 6.453125 -7.875 L 6.453125 -32.625 C 6.453125 -33.738281 6.363281 -34.476562 6.1875 -34.84375 C 6.019531 -35.207031 5.570312 -35.539062 4.84375 -35.84375 L 1.609375 -37.71875 L 1.8125 -43.53125 L 36.890625 -43.53125 C 37.179688 -39.007812 37.328125 -34.597656 37.328125 -30.296875 L 32.5625 -29.96875 L 27.96875 -35.65625 L 18.21875 -35.921875 L 18.21875 -25.390625 L 31.96875 -26.546875 L 31.96875 -16.59375 L 18.21875 -18.09375 L 18.21875 -7.6875 L 28.9375 -7.875 L 33.90625 -13.5625 L 38.6875 -13.234375 C 38.519531 -8.710938 38.195312 -4.300781 37.71875 0 L 2.0625 0 Z M 1.75 -6.59375 "/></g></g></g><g fill="#000000" fill-opacity="1"><g transform="translate(107.442086, 241.001439)"><g><path d="M 10.984375 0.84375 C 8.054688 0.84375 5.707031 0.0351562 3.9375 -1.578125 C 2.175781 -3.191406 1.296875 -5.269531 1.296875 -7.8125 C 1.296875 -11.21875 3.003906 -13.890625 6.421875 -15.828125 C 9.847656 -17.765625 14.832031 -18.863281 21.375 -19.125 C 21.375 -21.144531 21.210938 -22.640625 20.890625 -23.609375 C 20.566406 -24.578125 19.984375 -25.242188 19.140625 -25.609375 C 18.304688 -25.972656 17.03125 -26.15625 15.3125 -26.15625 C 13.539062 -26.15625 12.289062 -26.09375 11.5625 -25.96875 L 8.90625 -20.734375 L 4.140625 -21.0625 C 3.398438 -24.5 2.878906 -28.070312 2.578125 -31.78125 C 4.992188 -32.59375 7.632812 -33.234375 10.5 -33.703125 C 13.363281 -34.179688 16.039062 -34.421875 18.53125 -34.421875 C 23.101562 -34.421875 26.378906 -33.523438 28.359375 -31.734375 C 30.335938 -29.953125 31.328125 -26.992188 31.328125 -22.859375 L 31.328125 -9.359375 C 31.328125 -8.585938 31.398438 -8.050781 31.546875 -7.75 C 31.703125 -7.445312 32.039062 -7.144531 32.5625 -6.84375 L 35.140625 -5.359375 L 34.875 -1.359375 C 29.882812 -0.191406 25.945312 0.453125 23.0625 0.578125 C 22.976562 0.316406 22.847656 -0.144531 22.671875 -0.8125 C 22.492188 -1.476562 22.34375 -2.113281 22.21875 -2.71875 C 20.539062 -1.632812 18.695312 -0.769531 16.6875 -0.125 C 14.6875 0.519531 12.785156 0.84375 10.984375 0.84375 Z M 15.3125 -6.453125 C 17.03125 -6.453125 19.117188 -7.035156 21.578125 -8.203125 L 21.3125 -13.109375 C 20.28125 -13.191406 19.59375 -13.234375 19.25 -13.234375 C 18.082031 -13.234375 16.722656 -13.113281 15.171875 -12.875 C 13.628906 -12.644531 12.40625 -12.378906 11.5 -12.078125 C 11.363281 -11.515625 11.296875 -11 11.296875 -10.53125 C 11.296875 -9.238281 11.648438 -8.234375 12.359375 -7.515625 C 13.078125 -6.804688 14.0625 -6.453125 15.3125 -6.453125 Z M 15.3125 -6.453125 "/></g></g></g><g fill="#000000" fill-opacity="1"><g transform="translate(143.218194, 241.001439)"><g><path d="M 13.625 1.09375 C 10.226562 1.09375 6.289062 0.492188 1.8125 -0.703125 C 2.070312 -4.929688 2.347656 -8.054688 2.640625 -10.078125 L 6.328125 -10.78125 L 10.40625 -6.453125 C 11.820312 -6.023438 13.410156 -5.8125 15.171875 -5.8125 C 16.171875 -5.8125 16.945312 -5.875 17.5 -6 C 17.632812 -6.351562 17.703125 -6.828125 17.703125 -7.421875 C 17.703125 -7.941406 17.582031 -8.375 17.34375 -8.71875 C 17.101562 -9.0625 16.570312 -9.46875 15.75 -9.9375 C 14.9375 -10.414062 13.519531 -11.148438 11.5 -12.140625 C 8.957031 -13.472656 7.019531 -14.664062 5.6875 -15.71875 C 4.351562 -16.78125 3.394531 -17.867188 2.8125 -18.984375 C 2.226562 -20.109375 1.9375 -21.445312 1.9375 -23 C 1.9375 -26.4375 3.21875 -29.164062 5.78125 -31.1875 C 8.34375 -33.21875 11.820312 -34.234375 16.21875 -34.234375 C 18.019531 -34.234375 19.921875 -34.023438 21.921875 -33.609375 C 23.929688 -33.203125 25.734375 -32.65625 27.328125 -31.96875 C 27.328125 -29.175781 27.128906 -26.054688 26.734375 -22.609375 L 23.390625 -22.09375 L 19.0625 -26.734375 C 17.9375 -27.085938 16.296875 -27.265625 14.140625 -27.265625 C 13.796875 -27.265625 13.109375 -27.21875 12.078125 -27.125 C 11.953125 -26.863281 11.890625 -26.457031 11.890625 -25.90625 C 11.890625 -25.300781 12.0625 -24.769531 12.40625 -24.3125 C 12.75 -23.863281 13.359375 -23.367188 14.234375 -22.828125 C 15.117188 -22.296875 16.53125 -21.535156 18.46875 -20.546875 C 21.3125 -19.160156 23.453125 -17.960938 24.890625 -16.953125 C 26.335938 -15.941406 27.351562 -14.921875 27.9375 -13.890625 C 28.519531 -12.859375 28.8125 -11.609375 28.8125 -10.140625 C 28.8125 -6.609375 27.460938 -3.851562 24.765625 -1.875 C 22.078125 0.101562 18.363281 1.09375 13.625 1.09375 Z M 13.625 1.09375 "/></g></g></g><g fill="#000000" fill-opacity="1"><g transform="translate(172.988567, 241.001439)"><g><path d="M 11.5625 14.796875 C 8.457031 12.722656 5.703125 10.050781 3.296875 6.78125 L 10.46875 -0.265625 L 1.09375 -24.9375 C 0.625 -26.09375 0.300781 -26.84375 0.125 -27.1875 C -0.0390625 -27.53125 -0.363281 -28.003906 -0.84375 -28.609375 L -1.9375 -30.03125 L -1.609375 -33.78125 L 14.921875 -33.78125 L 15.5625 -28.296875 L 11.828125 -27.390625 L 17.125 -11.171875 L 23.0625 -26.03125 C 23.144531 -26.289062 23.1875 -26.484375 23.1875 -26.609375 C 23.1875 -26.992188 23.015625 -27.253906 22.671875 -27.390625 L 19.640625 -28.671875 L 20.21875 -33.78125 L 32.484375 -33.78125 L 33.078125 -28.546875 L 24.796875 -10.53125 C 21.828125 -4.03125 19.375 1.066406 17.4375 4.765625 C 15.5 8.472656 13.539062 11.816406 11.5625 14.796875 Z M 11.5625 14.796875 "/></g></g></g><g fill="#000000" fill-opacity="1"><g transform="translate(207.666854, 241.001439)"><g><path d="M 11.109375 -6.328125 L 16.734375 -7.875 L 16.734375 -35.84375 L 11.296875 -35.390625 L 6.53125 -29.65625 L 1.8125 -30.03125 C 1.8125 -33.601562 1.984375 -38.101562 2.328125 -43.53125 L 42.765625 -43.53125 C 43.109375 -38.101562 43.28125 -33.601562 43.28125 -30.03125 L 38.625 -29.65625 L 33.78125 -35.390625 L 28.484375 -35.84375 L 28.484375 -10.46875 C 28.484375 -9.425781 28.546875 -8.753906 28.671875 -8.453125 C 28.804688 -8.160156 29.175781 -7.863281 29.78125 -7.5625 L 33.78125 -5.171875 L 33.53125 0 L 11.4375 0 Z M 11.109375 -6.328125 "/></g></g></g><g fill="#000000" fill-opacity="1"><g transform="translate(252.806744, 241.001439)"><g><path d="M 4.328125 -47.796875 L 15.3125 -50.703125 L 17.953125 -40.890625 L 7.046875 -37.921875 Z M 1.609375 -5.9375 L 6.140625 -7.296875 L 6.140625 -23 C 6.140625 -23.945312 6.0625 -24.554688 5.90625 -24.828125 C 5.757812 -25.109375 5.382812 -25.421875 4.78125 -25.765625 L 1.9375 -27.328125 L 2.265625 -32.171875 C 5.835938 -32.859375 8.601562 -33.363281 10.5625 -33.6875 C 12.519531 -34.007812 14.316406 -34.191406 15.953125 -34.234375 C 16.515625 -32.378906 16.859375 -31 16.984375 -30.09375 L 16.984375 -9.4375 C 16.984375 -8.53125 17.046875 -7.925781 17.171875 -7.625 C 17.304688 -7.320312 17.675781 -7 18.28125 -6.65625 L 21.4375 -4.84375 L 21.1875 0 L 1.8125 0 Z M 1.609375 -5.9375 "/></g></g></g><g fill="#000000" fill-opacity="1"><g transform="translate(275.215238, 241.001439)"><g><path d="M 16.734375 0.84375 C 11.734375 0.84375 7.851562 -0.691406 5.09375 -3.765625 C 2.34375 -6.847656 0.96875 -11.101562 0.96875 -16.53125 C 0.96875 -22.175781 2.441406 -26.566406 5.390625 -29.703125 C 8.335938 -32.847656 12.375 -34.421875 17.5 -34.421875 C 21.375 -34.421875 25.53125 -33.539062 29.96875 -31.78125 C 29.882812 -30.53125 29.691406 -28.878906 29.390625 -26.828125 C 29.085938 -24.785156 28.765625 -22.90625 28.421875 -21.1875 L 24.09375 -20.796875 L 20.09375 -25.90625 C 19.007812 -26.113281 17.800781 -26.21875 16.46875 -26.21875 C 15.394531 -26.21875 14.40625 -26.15625 13.5 -26.03125 C 12.507812 -24.132812 12.015625 -21.460938 12.015625 -18.015625 C 12.015625 -14.484375 12.640625 -11.867188 13.890625 -10.171875 C 15.140625 -8.472656 17.035156 -7.625 19.578125 -7.625 C 20.773438 -7.625 22.234375 -7.804688 23.953125 -8.171875 C 25.679688 -8.535156 27.453125 -9.0625 29.265625 -9.75 L 30.8125 -3.296875 C 29.09375 -2.085938 26.953125 -1.09375 24.390625 -0.3125 C 21.828125 0.457031 19.273438 0.84375 16.734375 0.84375 Z M 16.734375 0.84375 "/></g></g></g><g fill="#000000" fill-opacity="1"><g transform="translate(70.27447, 282.279361)"><g><path d="M 9.109375 0.09375 C 8.359375 0.09375 7.984375 -0.3125 7.984375 -1.125 L 7.984375 -0.96875 C 7.992188 -0.96875 8.035156 -1.582031 8.109375 -2.8125 C 8.179688 -4.039062 8.222656 -4.945312 8.234375 -5.53125 C 8.234375 -6.320312 7.988281 -6.890625 7.5 -7.234375 C 7.019531 -7.578125 6.164062 -7.734375 4.9375 -7.703125 C 4.175781 -7.691406 3.796875 -7.414062 3.796875 -6.875 C 3.796875 -6.789062 3.8125 -6.695312 3.84375 -6.59375 C 4.1875 -5.0625 4.359375 -3.800781 4.359375 -2.8125 C 4.359375 -2.457031 4.332031 -2.09375 4.28125 -1.71875 C 4.21875 -1.351562 4.066406 -1.03125 3.828125 -0.75 C 3.585938 -0.476562 3.316406 -0.269531 3.015625 -0.125 C 2.722656 0.0078125 2.453125 0.078125 2.203125 0.078125 C 0.984375 0.078125 0.375 -0.382812 0.375 -1.3125 C 0.375 -1.632812 0.46875 -1.878906 0.65625 -2.046875 C 0.851562 -2.210938 1.109375 -2.285156 1.421875 -2.265625 L 1.71875 -2.234375 C 1.945312 -2.234375 2.125 -2.296875 2.25 -2.421875 C 2.382812 -2.546875 2.453125 -2.789062 2.453125 -3.15625 C 2.453125 -3.476562 2.398438 -3.875 2.296875 -4.34375 L 2.15625 -4.90625 C 2.007812 -5.519531 1.894531 -6.039062 1.8125 -6.46875 C 1.726562 -6.90625 1.6875 -7.316406 1.6875 -7.703125 C 1.6875 -8.429688 1.929688 -8.992188 2.421875 -9.390625 C 2.921875 -9.796875 3.867188 -10 5.265625 -10 C 7.023438 -10 8.269531 -9.628906 9 -8.890625 C 9.738281 -8.148438 10.109375 -7.0625 10.109375 -5.625 L 10.078125 -1.453125 C 10.078125 -0.867188 9.988281 -0.460938 9.8125 -0.234375 C 9.644531 -0.015625 9.410156 0.09375 9.109375 0.09375 Z M 9.109375 0.09375 "/></g></g></g><g fill="#000000" fill-opacity="1"><g transform="translate(88.813062, 282.279361)"><g><path d="M 7.53125 -5.46875 C 7.40625 -5.332031 7.285156 -5.210938 7.171875 -5.109375 C 7.671875 -4.515625 8.171875 -3.875 8.671875 -3.1875 C 9.210938 -2.4375 9.484375 -1.789062 9.484375 -1.25 C 9.484375 -0.800781 9.273438 -0.457031 8.859375 -0.21875 C 8.441406 0.0078125 7.835938 0.125 7.046875 0.125 C 5.929688 0.125 5.117188 0.113281 4.609375 0.09375 C 4.109375 0.0820312 3.578125 0.0546875 3.015625 0.015625 C 2.234375 -0.0351562 1.671875 -0.148438 1.328125 -0.328125 C 0.992188 -0.503906 0.828125 -0.765625 0.828125 -1.109375 C 0.828125 -1.410156 0.953125 -1.660156 1.203125 -1.859375 C 1.453125 -2.066406 1.8125 -2.171875 2.28125 -2.171875 C 2.414062 -2.171875 2.519531 -2.164062 2.59375 -2.15625 C 4.363281 -1.957031 5.757812 -1.859375 6.78125 -1.859375 C 6.875 -1.859375 6.945312 -1.890625 7 -1.953125 C 7.0625 -2.015625 7.09375 -2.082031 7.09375 -2.15625 C 7.09375 -2.28125 7.046875 -2.390625 6.953125 -2.484375 C 6.460938 -3.003906 5.523438 -3.929688 4.140625 -5.265625 C 3.015625 -6.335938 2.160156 -7.175781 1.578125 -7.78125 C 1.003906 -8.394531 0.71875 -8.800781 0.71875 -9 C 0.71875 -9.351562 0.8125 -9.609375 1 -9.765625 C 1.1875 -9.921875 1.414062 -10 1.6875 -10 C 1.9375 -10 2.40625 -9.726562 3.09375 -9.1875 C 3.894531 -8.550781 4.878906 -7.609375 6.046875 -6.359375 L 6.109375 -6.484375 C 6.160156 -6.578125 6.359375 -6.941406 6.703125 -7.578125 C 7.054688 -8.222656 7.429688 -8.796875 7.828125 -9.296875 C 8.191406 -9.753906 8.492188 -9.984375 8.734375 -9.984375 C 9.015625 -9.984375 9.234375 -9.894531 9.390625 -9.71875 C 9.546875 -9.550781 9.625 -9.335938 9.625 -9.078125 C 9.625 -8.898438 9.597656 -8.734375 9.546875 -8.578125 C 9.429688 -8.242188 9.164062 -7.757812 8.75 -7.125 C 8.34375 -6.5 7.9375 -5.945312 7.53125 -5.46875 Z M 7.53125 -5.46875 "/></g></g></g><g fill="#000000" fill-opacity="1"><g transform="translate(106.321829, 282.279361)"><g><path d="M 1.78125 -3.96875 C 1.175781 -3.96875 0.859375 -4.375 0.828125 -5.1875 L 0.8125 -5.609375 C 0.769531 -6.304688 0.75 -7.015625 0.75 -7.734375 C 0.75 -8.273438 0.753906 -8.707031 0.765625 -9.03125 C 0.785156 -9.414062 0.875 -9.671875 1.03125 -9.796875 C 1.1875 -9.929688 1.425781 -10 1.75 -10 C 2.019531 -10 2.234375 -9.941406 2.390625 -9.828125 C 2.554688 -9.710938 2.671875 -9.4375 2.734375 -9 C 2.765625 -8.726562 2.78125 -8.320312 2.78125 -7.78125 C 2.78125 -7.414062 2.765625 -6.875 2.734375 -6.15625 L 2.71875 -5.53125 C 2.664062 -4.832031 2.550781 -4.390625 2.375 -4.203125 C 2.207031 -4.023438 2.007812 -3.945312 1.78125 -3.96875 Z M 1.78125 -3.96875 "/></g></g></g><g fill="#000000" fill-opacity="1"><g transform="translate(117.037711, 282.279361)"><g><path d="M 1.984375 0.125 C 1.691406 0.125 1.476562 0.0507812 1.34375 -0.09375 C 1.21875 -0.238281 1.125 -0.519531 1.0625 -0.9375 C 1.007812 -1.363281 0.984375 -2.035156 0.984375 -2.953125 L 0.984375 -7.78125 C 0.984375 -8.425781 1.0625 -8.90625 1.21875 -9.21875 C 1.382812 -9.539062 1.640625 -9.753906 1.984375 -9.859375 C 2.335938 -9.972656 2.851562 -10.03125 3.53125 -10.03125 L 4.375 -10.046875 C 4.800781 -10.046875 5.21875 -10.003906 5.625 -9.921875 C 7.007812 -9.671875 8.097656 -9.222656 8.890625 -8.578125 C 9.679688 -7.929688 10.195312 -7.019531 10.4375 -5.84375 C 10.539062 -5.3125 10.613281 -4.832031 10.65625 -4.40625 C 10.707031 -3.988281 10.753906 -3.457031 10.796875 -2.8125 L 10.8125 -2.140625 C 10.8125 -1.785156 10.796875 -1.472656 10.765625 -1.203125 C 10.722656 -0.785156 10.613281 -0.457031 10.4375 -0.21875 C 10.269531 0.0078125 10.007812 0.125 9.65625 0.125 C 9.34375 0.125 9.132812 0.0195312 9.03125 -0.1875 C 8.925781 -0.40625 8.847656 -0.757812 8.796875 -1.25 C 8.734375 -1.757812 8.664062 -2.625 8.59375 -3.84375 C 8.53125 -5.21875 8.113281 -6.222656 7.34375 -6.859375 C 6.582031 -7.503906 5.460938 -7.828125 3.984375 -7.828125 C 3.441406 -7.828125 3.125 -7.582031 3.03125 -7.09375 C 3 -6.9375 2.976562 -6.46875 2.96875 -5.6875 C 2.957031 -4.914062 2.953125 -4.382812 2.953125 -4.09375 C 2.953125 -3.78125 2.941406 -3.3125 2.921875 -2.6875 C 2.910156 -2.070312 2.898438 -1.6875 2.890625 -1.53125 C 2.785156 -0.425781 2.484375 0.125 1.984375 0.125 Z M 1.984375 0.125 "/></g></g></g><g fill="#000000" fill-opacity="1"><g transform="translate(136.031794, 282.279361)"><g><path d="M 3.703125 0.21875 C 3.535156 0.21875 3.394531 0.148438 3.28125 0.015625 C 3.164062 -0.109375 3.109375 -0.28125 3.109375 -0.5 C 3.109375 -0.84375 3.269531 -1.191406 3.59375 -1.546875 C 4.394531 -2.390625 5.039062 -3.222656 5.53125 -4.046875 C 6.03125 -4.878906 6.363281 -5.75 6.53125 -6.65625 C 6.550781 -6.707031 6.5625 -6.785156 6.5625 -6.890625 C 6.5625 -7.191406 6.4375 -7.410156 6.1875 -7.546875 C 5.945312 -7.679688 5.550781 -7.769531 5 -7.8125 C 4.738281 -7.820312 4.285156 -7.828125 3.640625 -7.828125 L 1.875 -7.828125 C 1.425781 -7.828125 1.082031 -7.925781 0.84375 -8.125 C 0.613281 -8.320312 0.507812 -8.578125 0.53125 -8.890625 C 0.550781 -8.984375 0.5625 -9.171875 0.5625 -9.453125 C 0.582031 -10.347656 0.640625 -11.015625 0.734375 -11.453125 C 0.929688 -12.609375 1.328125 -13.1875 1.921875 -13.1875 C 2.273438 -13.1875 2.523438 -13.09375 2.671875 -12.90625 C 2.816406 -12.71875 2.890625 -12.398438 2.890625 -11.953125 C 2.890625 -11.710938 2.882812 -11.519531 2.875 -11.375 L 2.6875 -9.84375 L 3.234375 -9.84375 C 3.378906 -9.84375 3.773438 -9.835938 4.421875 -9.828125 C 5.066406 -9.816406 5.660156 -9.789062 6.203125 -9.75 C 6.742188 -9.707031 7.125 -9.65625 7.34375 -9.59375 C 8.269531 -9.34375 8.734375 -8.8125 8.734375 -8 C 8.734375 -7.382812 8.585938 -6.613281 8.296875 -5.6875 C 8.003906 -4.757812 7.617188 -3.847656 7.140625 -2.953125 C 6.660156 -2.054688 6.144531 -1.328125 5.59375 -0.765625 C 4.925781 -0.109375 4.296875 0.21875 3.703125 0.21875 Z M 3.703125 0.21875 "/></g></g></g><g fill="#000000" fill-opacity="1"><g transform="translate(152.60976, 282.279361)"><g><path d="M 9.453125 -2.0625 C 10.140625 -2.019531 10.613281 -1.921875 10.875 -1.765625 C 11.132812 -1.617188 11.265625 -1.378906 11.265625 -1.046875 C 11.265625 -0.773438 11.21875 -0.5625 11.125 -0.40625 C 11.039062 -0.25 10.878906 -0.140625 10.640625 -0.078125 C 10.410156 -0.0234375 10.066406 0 9.609375 0 L 2.859375 0.015625 C 1.992188 0.015625 1.382812 -0.0820312 1.03125 -0.28125 C 0.675781 -0.476562 0.5 -0.851562 0.5 -1.40625 C 0.5 -1.738281 0.601562 -1.957031 0.8125 -2.0625 C 1.019531 -2.164062 1.363281 -2.21875 1.84375 -2.21875 L 2.78125 -2.203125 C 2.832031 -2.203125 2.953125 -2.195312 3.140625 -2.1875 C 3.328125 -2.175781 3.628906 -2.171875 4.046875 -2.171875 C 4.410156 -2.160156 5.582031 -2.132812 7.5625 -2.09375 C 7.5625 -2.8125 7.582031 -3.492188 7.625 -4.140625 C 7.65625 -4.960938 7.671875 -5.578125 7.671875 -5.984375 C 7.671875 -6.535156 7.597656 -6.953125 7.453125 -7.234375 C 7.304688 -7.523438 6.992188 -7.691406 6.515625 -7.734375 C 5.472656 -7.816406 4.578125 -7.859375 3.828125 -7.859375 C 3.179688 -7.859375 2.617188 -7.832031 2.140625 -7.78125 C 2.046875 -7.769531 1.914062 -7.765625 1.75 -7.765625 C 1.3125 -7.765625 0.984375 -7.859375 0.765625 -8.046875 C 0.554688 -8.234375 0.453125 -8.488281 0.453125 -8.8125 C 0.453125 -9.164062 0.578125 -9.425781 0.828125 -9.59375 C 1.078125 -9.757812 1.4375 -9.863281 1.90625 -9.90625 C 2.59375 -9.96875 3.351562 -10 4.1875 -10 C 5.320312 -10 6.445312 -9.945312 7.5625 -9.84375 C 8.21875 -9.78125 8.710938 -9.546875 9.046875 -9.140625 C 9.390625 -8.742188 9.5625 -8.28125 9.5625 -7.75 C 9.5625 -6.851562 9.546875 -5.945312 9.515625 -5.03125 C 9.515625 -4.726562 9.503906 -4.273438 9.484375 -3.671875 C 9.460938 -3.078125 9.453125 -2.539062 9.453125 -2.0625 Z M 9.453125 -2.0625 "/></g></g></g><g fill="#000000" fill-opacity="1"><g transform="translate(171.584039, 282.279361)"><g/></g></g><g fill="#000000" fill-opacity="1"><g transform="translate(182.894055, 282.279361)"><g><path d="M 9.109375 0.09375 C 8.359375 0.09375 7.984375 -0.3125 7.984375 -1.125 L 7.984375 -0.96875 C 7.992188 -0.96875 8.035156 -1.582031 8.109375 -2.8125 C 8.179688 -4.039062 8.222656 -4.945312 8.234375 -5.53125 C 8.234375 -6.320312 7.988281 -6.890625 7.5 -7.234375 C 7.019531 -7.578125 6.164062 -7.734375 4.9375 -7.703125 C 4.175781 -7.691406 3.796875 -7.414062 3.796875 -6.875 C 3.796875 -6.789062 3.8125 -6.695312 3.84375 -6.59375 C 4.1875 -5.0625 4.359375 -3.800781 4.359375 -2.8125 C 4.359375 -2.457031 4.332031 -2.09375 4.28125 -1.71875 C 4.21875 -1.351562 4.066406 -1.03125 3.828125 -0.75 C 3.585938 -0.476562 3.316406 -0.269531 3.015625 -0.125 C 2.722656 0.0078125 2.453125 0.078125 2.203125 0.078125 C 0.984375 0.078125 0.375 -0.382812 0.375 -1.3125 C 0.375 -1.632812 0.46875 -1.878906 0.65625 -2.046875 C 0.851562 -2.210938 1.109375 -2.285156 1.421875 -2.265625 L 1.71875 -2.234375 C 1.945312 -2.234375 2.125 -2.296875 2.25 -2.421875 C 2.382812 -2.546875 2.453125 -2.789062 2.453125 -3.15625 C 2.453125 -3.476562 2.398438 -3.875 2.296875 -4.34375 L 2.15625 -4.90625 C 2.007812 -5.519531 1.894531 -6.039062 1.8125 -6.46875 C 1.726562 -6.90625 1.6875 -7.316406 1.6875 -7.703125 C 1.6875 -8.429688 1.929688 -8.992188 2.421875 -9.390625 C 2.921875 -9.796875 3.867188 -10 5.265625 -10 C 7.023438 -10 8.269531 -9.628906 9 -8.890625 C 9.738281 -8.148438 10.109375 -7.0625 10.109375 -5.625 L 10.078125 -1.453125 C 10.078125 -0.867188 9.988281 -0.460938 9.8125 -0.234375 C 9.644531 -0.015625 9.410156 0.09375 9.109375 0.09375 Z M 9.109375 0.09375 "/></g></g></g><g fill="#000000" fill-opacity="1"><g transform="translate(201.432651, 282.279361)"><g><path d="M 2.71875 0.09375 C 2.289062 0.09375 1.984375 -0.101562 1.796875 -0.5 C 1.617188 -0.90625 1.503906 -1.457031 1.453125 -2.15625 C 1.390625 -2.65625 1.316406 -3.601562 1.234375 -5 C 1.160156 -6.40625 1.125 -7.382812 1.125 -7.9375 C 1.125 -8.5 1.179688 -8.984375 1.296875 -9.390625 C 1.421875 -9.796875 1.632812 -10 1.9375 -10 C 2.457031 -10 2.828125 -9.863281 3.046875 -9.59375 C 3.265625 -9.320312 3.398438 -8.800781 3.453125 -8.03125 C 3.460938 -7.84375 3.46875 -7.210938 3.46875 -6.140625 C 3.46875 -3.867188 3.445312 -2.414062 3.40625 -1.78125 C 3.34375 -0.53125 3.113281 0.09375 2.71875 0.09375 Z M 2.71875 0.09375 "/></g></g></g><g fill="#000000" fill-opacity="1"><g transform="translate(212.742666, 282.279361)"><g><path d="M 1.78125 -3.96875 C 1.175781 -3.96875 0.859375 -4.375 0.828125 -5.1875 L 0.8125 -5.609375 C 0.769531 -6.304688 0.75 -7.015625 0.75 -7.734375 C 0.75 -8.273438 0.753906 -8.707031 0.765625 -9.03125 C 0.785156 -9.414062 0.875 -9.671875 1.03125 -9.796875 C 1.1875 -9.929688 1.425781 -10 1.75 -10 C 2.019531 -10 2.234375 -9.941406 2.390625 -9.828125 C 2.554688 -9.710938 2.671875 -9.4375 2.734375 -9 C 2.765625 -8.726562 2.78125 -8.320312 2.78125 -7.78125 C 2.78125 -7.414062 2.765625 -6.875 2.734375 -6.15625 L 2.71875 -5.53125 C 2.664062 -4.832031 2.550781 -4.390625 2.375 -4.203125 C 2.207031 -4.023438 2.007812 -3.945312 1.78125 -3.96875 Z M 1.78125 -3.96875 "/></g></g></g><g fill="#000000" fill-opacity="1"><g transform="translate(223.458552, 282.279361)"><g><path d="M 7.53125 -5.46875 C 7.40625 -5.332031 7.285156 -5.210938 7.171875 -5.109375 C 7.671875 -4.515625 8.171875 -3.875 8.671875 -3.1875 C 9.210938 -2.4375 9.484375 -1.789062 9.484375 -1.25 C 9.484375 -0.800781 9.273438 -0.457031 8.859375 -0.21875 C 8.441406 0.0078125 7.835938 0.125 7.046875 0.125 C 5.929688 0.125 5.117188 0.113281 4.609375 0.09375 C 4.109375 0.0820312 3.578125 0.0546875 3.015625 0.015625 C 2.234375 -0.0351562 1.671875 -0.148438 1.328125 -0.328125 C 0.992188 -0.503906 0.828125 -0.765625 0.828125 -1.109375 C 0.828125 -1.410156 0.953125 -1.660156 1.203125 -1.859375 C 1.453125 -2.066406 1.8125 -2.171875 2.28125 -2.171875 C 2.414062 -2.171875 2.519531 -2.164062 2.59375 -2.15625 C 4.363281 -1.957031 5.757812 -1.859375 6.78125 -1.859375 C 6.875 -1.859375 6.945312 -1.890625 7 -1.953125 C 7.0625 -2.015625 7.09375 -2.082031 7.09375 -2.15625 C 7.09375 -2.28125 7.046875 -2.390625 6.953125 -2.484375 C 6.460938 -3.003906 5.523438 -3.929688 4.140625 -5.265625 C 3.015625 -6.335938 2.160156 -7.175781 1.578125 -7.78125 C 1.003906 -8.394531 0.71875 -8.800781 0.71875 -9 C 0.71875 -9.351562 0.8125 -9.609375 1 -9.765625 C 1.1875 -9.921875 1.414062 -10 1.6875 -10 C 1.9375 -10 2.40625 -9.726562 3.09375 -9.1875 C 3.894531 -8.550781 4.878906 -7.609375 6.046875 -6.359375 L 6.109375 -6.484375 C 6.160156 -6.578125 6.359375 -6.941406 6.703125 -7.578125 C 7.054688 -8.222656 7.429688 -8.796875 7.828125 -9.296875 C 8.191406 -9.753906 8.492188 -9.984375 8.734375 -9.984375 C 9.015625 -9.984375 9.234375 -9.894531 9.390625 -9.71875 C 9.546875 -9.550781 9.625 -9.335938 9.625 -9.078125 C 9.625 -8.898438 9.597656 -8.734375 9.546875 -8.578125 C 9.429688 -8.242188 9.164062 -7.757812 8.75 -7.125 C 8.34375 -6.5 7.9375 -5.945312 7.53125 -5.46875 Z M 7.53125 -5.46875 "/></g></g></g><g fill="#000000" fill-opacity="1"><g transform="translate(240.967321, 282.279361)"><g><path d="M 5.609375 0.078125 C 5.328125 0.078125 5.113281 0.00390625 4.96875 -0.140625 C 4.820312 -0.285156 4.75 -0.476562 4.75 -0.71875 C 4.75 -0.945312 4.816406 -1.203125 4.953125 -1.484375 C 5.097656 -1.765625 5.3125 -2.03125 5.59375 -2.28125 C 6.144531 -2.789062 6.566406 -3.300781 6.859375 -3.8125 C 7.148438 -4.332031 7.296875 -4.890625 7.296875 -5.484375 C 7.296875 -6.453125 6.925781 -7.117188 6.1875 -7.484375 C 5.457031 -7.859375 4.304688 -8.046875 2.734375 -8.046875 C 2.109375 -8.046875 1.640625 -8.085938 1.328125 -8.171875 C 1.023438 -8.253906 0.828125 -8.367188 0.734375 -8.515625 C 0.648438 -8.671875 0.609375 -8.867188 0.609375 -9.109375 C 0.609375 -9.429688 0.789062 -9.6875 1.15625 -9.875 C 1.519531 -10.0625 2.015625 -10.15625 2.640625 -10.15625 C 2.984375 -10.15625 3.414062 -10.144531 3.9375 -10.125 C 5.382812 -10.0625 6.503906 -9.851562 7.296875 -9.5 C 8.085938 -9.144531 8.640625 -8.644531 8.953125 -8 C 9.273438 -7.363281 9.4375 -6.535156 9.4375 -5.515625 C 9.4375 -4.191406 8.96875 -2.976562 8.03125 -1.875 C 7.507812 -1.269531 7.097656 -0.828125 6.796875 -0.546875 C 6.492188 -0.265625 6.257812 -0.0859375 6.09375 -0.015625 C 5.9375 0.046875 5.773438 0.078125 5.609375 0.078125 Z M 1.78125 3.75 C 1.46875 3.75 1.25 3.632812 1.125 3.40625 C 1 3.1875 0.941406 2.773438 0.953125 2.171875 C 1.003906 -0.566406 1.03125 -2.796875 1.03125 -4.515625 C 1.03125 -4.898438 1.148438 -5.222656 1.390625 -5.484375 C 1.640625 -5.753906 1.914062 -5.890625 2.21875 -5.890625 C 2.519531 -5.890625 2.738281 -5.789062 2.875 -5.59375 C 3.019531 -5.394531 3.09375 -5.015625 3.09375 -4.453125 C 3.09375 -3.609375 3.078125 -2.46875 3.046875 -1.03125 C 3.023438 0.40625 3 1.394531 2.96875 1.9375 C 2.925781 2.476562 2.847656 2.878906 2.734375 3.140625 C 2.628906 3.398438 2.503906 3.566406 2.359375 3.640625 C 2.210938 3.710938 2.019531 3.75 1.78125 3.75 Z M 1.78125 3.75 "/></g></g></g><g fill="#000000" fill-opacity="1"><g transform="translate(258.238441, 282.279361)"><g><path d="M 7.734375 0.09375 C 7.390625 0.09375 7.125 -0.0234375 6.9375 -0.265625 C 6.757812 -0.515625 6.671875 -0.84375 6.671875 -1.25 L 6.703125 -1.765625 C 6.734375 -3.546875 6.75 -4.894531 6.75 -5.8125 C 6.75 -6.425781 6.632812 -6.90625 6.40625 -7.25 C 6.1875 -7.601562 5.796875 -7.78125 5.234375 -7.78125 C 4.898438 -7.78125 4.578125 -7.773438 4.265625 -7.765625 L 1.75 -7.75 C 1.257812 -7.75 0.859375 -7.847656 0.546875 -8.046875 C 0.234375 -8.242188 0.078125 -8.519531 0.078125 -8.875 C 0.078125 -9.03125 0.140625 -9.195312 0.265625 -9.375 C 0.398438 -9.5625 0.609375 -9.71875 0.890625 -9.84375 C 1.179688 -9.96875 1.546875 -10.03125 1.984375 -10.03125 L 2.796875 -10.03125 C 3.921875 -10.03125 4.835938 -10.007812 5.546875 -9.96875 C 6.265625 -9.9375 6.757812 -9.875 7.03125 -9.78125 C 7.675781 -9.550781 8.132812 -9.15625 8.40625 -8.59375 C 8.675781 -8.03125 8.8125 -7.117188 8.8125 -5.859375 C 8.8125 -3.804688 8.800781 -2.5 8.78125 -1.9375 C 8.738281 -1.25 8.632812 -0.738281 8.46875 -0.40625 C 8.300781 -0.0703125 8.054688 0.09375 7.734375 0.09375 Z M 7.734375 0.09375 "/></g></g></g><g fill="#000000" fill-opacity="1"><g transform="translate(274.895624, 282.279361)"><g><path d="M 5.46875 0.21875 C 4.050781 0.21875 2.921875 -0.269531 2.078125 -1.25 C 1.242188 -2.238281 0.828125 -3.691406 0.828125 -5.609375 C 0.828125 -7.046875 1 -8.140625 1.34375 -8.890625 C 1.6875 -9.648438 2.207031 -10.03125 2.90625 -10.03125 C 3.15625 -10.03125 3.351562 -9.925781 3.5 -9.71875 C 3.644531 -9.507812 3.71875 -9.242188 3.71875 -8.921875 C 3.71875 -8.671875 3.617188 -8.191406 3.421875 -7.484375 C 3.097656 -6.421875 2.9375 -5.53125 2.9375 -4.8125 C 2.9375 -3.832031 3.160156 -3.09375 3.609375 -2.59375 C 4.054688 -2.09375 4.695312 -1.84375 5.53125 -1.84375 C 6.476562 -1.84375 7.25 -2.164062 7.84375 -2.8125 C 8.445312 -3.457031 8.832031 -4.285156 9 -5.296875 C 9.03125 -5.597656 9.046875 -5.859375 9.046875 -6.078125 C 9.046875 -6.597656 8.960938 -6.988281 8.796875 -7.25 C 8.628906 -7.507812 8.398438 -7.640625 8.109375 -7.640625 C 7.816406 -7.640625 7.570312 -7.519531 7.375 -7.28125 C 7.175781 -7.050781 6.957031 -6.710938 6.71875 -6.265625 C 6.476562 -5.816406 6.269531 -5.488281 6.09375 -5.28125 C 5.914062 -5.070312 5.6875 -4.992188 5.40625 -5.046875 C 4.9375 -5.148438 4.703125 -5.484375 4.703125 -6.046875 C 4.703125 -6.347656 4.765625 -6.691406 4.890625 -7.078125 C 5.171875 -7.921875 5.59375 -8.625 6.15625 -9.1875 C 6.726562 -9.757812 7.457031 -10.046875 8.34375 -10.046875 C 9.125 -10.046875 9.742188 -9.707031 10.203125 -9.03125 C 10.660156 -8.363281 10.890625 -7.40625 10.890625 -6.15625 C 10.890625 -5.601562 10.859375 -5.097656 10.796875 -4.640625 C 10.679688 -3.753906 10.394531 -2.941406 9.9375 -2.203125 C 9.476562 -1.460938 8.867188 -0.875 8.109375 -0.4375 C 7.347656 0 6.46875 0.21875 5.46875 0.21875 Z M 5.46875 0.21875 "/></g></g></g><g fill="#000000" fill-opacity="1"><g transform="translate(293.355004, 282.279361)"><g><path d="M 10.515625 -1.421875 C 10.703125 -1.242188 10.796875 -1.035156 10.796875 -0.796875 C 10.796875 -0.503906 10.675781 -0.238281 10.4375 0 C 10.28125 0.15625 10.082031 0.234375 9.84375 0.234375 C 9.625 0.234375 9.382812 0.164062 9.125 0.03125 C 8.875 -0.09375 8.632812 -0.273438 8.40625 -0.515625 L 3.90625 -5.125 L 2.8125 -1.046875 C 2.601562 -0.265625 2.179688 0.125 1.546875 0.125 C 1.253906 0.125 1.03125 0.03125 0.875 -0.15625 C 0.71875 -0.34375 0.640625 -0.601562 0.640625 -0.9375 C 0.640625 -1.1875 0.679688 -1.445312 0.765625 -1.71875 L 2.265625 -6.40625 C 2.296875 -6.507812 2.335938 -6.59375 2.390625 -6.65625 L 0.875 -8.21875 C 0.644531 -8.445312 0.53125 -8.71875 0.53125 -9.03125 C 0.53125 -9.21875 0.566406 -9.382812 0.640625 -9.53125 C 0.722656 -9.6875 0.832031 -9.8125 0.96875 -9.90625 C 1.15625 -10.019531 1.34375 -10.078125 1.53125 -10.078125 C 1.84375 -10.078125 2.195312 -9.878906 2.59375 -9.484375 L 6.9375 -5.078125 L 8.421875 -8.359375 C 8.679688 -8.929688 8.929688 -9.347656 9.171875 -9.609375 C 9.421875 -9.867188 9.671875 -10 9.921875 -10 C 10.046875 -10 10.1875 -9.96875 10.34375 -9.90625 C 10.5625 -9.8125 10.71875 -9.707031 10.8125 -9.59375 C 10.914062 -9.488281 10.96875 -9.34375 10.96875 -9.15625 C 10.96875 -8.90625 10.851562 -8.519531 10.625 -8 L 8.578125 -3.703125 C 8.535156 -3.628906 8.492188 -3.570312 8.453125 -3.53125 Z M 10.515625 -1.421875 "/></g></g></g><g fill="#000000" fill-opacity="1"><g transform="translate(150.31838, 303.636011)"><g><path d="M 7.734375 0.09375 C 7.390625 0.09375 7.125 -0.0234375 6.9375 -0.265625 C 6.757812 -0.515625 6.671875 -0.84375 6.671875 -1.25 L 6.703125 -1.765625 C 6.734375 -3.546875 6.75 -4.894531 6.75 -5.8125 C 6.75 -6.425781 6.632812 -6.90625 6.40625 -7.25 C 6.1875 -7.601562 5.796875 -7.78125 5.234375 -7.78125 C 4.898438 -7.78125 4.578125 -7.773438 4.265625 -7.765625 L 1.75 -7.75 C 1.257812 -7.75 0.859375 -7.847656 0.546875 -8.046875 C 0.234375 -8.242188 0.078125 -8.519531 0.078125 -8.875 C 0.078125 -9.03125 0.140625 -9.195312 0.265625 -9.375 C 0.398438 -9.5625 0.609375 -9.71875 0.890625 -9.84375 C 1.179688 -9.96875 1.546875 -10.03125 1.984375 -10.03125 L 2.796875 -10.03125 C 3.921875 -10.03125 4.835938 -10.007812 5.546875 -9.96875 C 6.265625 -9.9375 6.757812 -9.875 7.03125 -9.78125 C 7.675781 -9.550781 8.132812 -9.15625 8.40625 -8.59375 C 8.675781 -8.03125 8.8125 -7.117188 8.8125 -5.859375 C 8.8125 -3.804688 8.800781 -2.5 8.78125 -1.9375 C 8.738281 -1.25 8.632812 -0.738281 8.46875 -0.40625 C 8.300781 -0.0703125 8.054688 0.09375 7.734375 0.09375 Z M 7.734375 0.09375 "/></g></g></g><g fill="#000000" fill-opacity="1"><g transform="translate(166.975559, 303.636011)"><g><path d="M 2.71875 0.09375 C 2.289062 0.09375 1.984375 -0.101562 1.796875 -0.5 C 1.617188 -0.90625 1.503906 -1.457031 1.453125 -2.15625 C 1.390625 -2.65625 1.316406 -3.601562 1.234375 -5 C 1.160156 -6.40625 1.125 -7.382812 1.125 -7.9375 C 1.125 -8.5 1.179688 -8.984375 1.296875 -9.390625 C 1.421875 -9.796875 1.632812 -10 1.9375 -10 C 2.457031 -10 2.828125 -9.863281 3.046875 -9.59375 C 3.265625 -9.320312 3.398438 -8.800781 3.453125 -8.03125 C 3.460938 -7.84375 3.46875 -7.210938 3.46875 -6.140625 C 3.46875 -3.867188 3.445312 -2.414062 3.40625 -1.78125 C 3.34375 -0.53125 3.113281 0.09375 2.71875 0.09375 Z M 2.71875 0.09375 "/></g></g></g><g fill="#000000" fill-opacity="1"><g transform="translate(178.285571, 303.636011)"><g><path d="M 9.109375 0.09375 C 8.359375 0.09375 7.984375 -0.3125 7.984375 -1.125 L 7.984375 -0.96875 C 7.992188 -0.96875 8.035156 -1.582031 8.109375 -2.8125 C 8.179688 -4.039062 8.222656 -4.945312 8.234375 -5.53125 C 8.234375 -6.320312 7.988281 -6.890625 7.5 -7.234375 C 7.019531 -7.578125 6.164062 -7.734375 4.9375 -7.703125 C 4.175781 -7.691406 3.796875 -7.414062 3.796875 -6.875 C 3.796875 -6.789062 3.8125 -6.695312 3.84375 -6.59375 C 4.1875 -5.0625 4.359375 -3.800781 4.359375 -2.8125 C 4.359375 -2.457031 4.332031 -2.09375 4.28125 -1.71875 C 4.21875 -1.351562 4.066406 -1.03125 3.828125 -0.75 C 3.585938 -0.476562 3.316406 -0.269531 3.015625 -0.125 C 2.722656 0.0078125 2.453125 0.078125 2.203125 0.078125 C 0.984375 0.078125 0.375 -0.382812 0.375 -1.3125 C 0.375 -1.632812 0.46875 -1.878906 0.65625 -2.046875 C 0.851562 -2.210938 1.109375 -2.285156 1.421875 -2.265625 L 1.71875 -2.234375 C 1.945312 -2.234375 2.125 -2.296875 2.25 -2.421875 C 2.382812 -2.546875 2.453125 -2.789062 2.453125 -3.15625 C 2.453125 -3.476562 2.398438 -3.875 2.296875 -4.34375 L 2.15625 -4.90625 C 2.007812 -5.519531 1.894531 -6.039062 1.8125 -6.46875 C 1.726562 -6.90625 1.6875 -7.316406 1.6875 -7.703125 C 1.6875 -8.429688 1.929688 -8.992188 2.421875 -9.390625 C 2.921875 -9.796875 3.867188 -10 5.265625 -10 C 7.023438 -10 8.269531 -9.628906 9 -8.890625 C 9.738281 -8.148438 10.109375 -7.0625 10.109375 -5.625 L 10.078125 -1.453125 C 10.078125 -0.867188 9.988281 -0.460938 9.8125 -0.234375 C 9.644531 -0.015625 9.410156 0.09375 9.109375 0.09375 Z M 9.109375 0.09375 "/></g></g></g><g fill="#000000" fill-opacity="1"><g transform="translate(196.824163, 303.636011)"><g><path d="M 4.9375 0.125 C 4.40625 0.125 3.898438 0.0664062 3.421875 -0.046875 C 2.953125 -0.160156 2.554688 -0.296875 2.234375 -0.453125 C 1.929688 -0.597656 1.707031 -0.78125 1.5625 -1 C 1.414062 -1.226562 1.34375 -1.460938 1.34375 -1.703125 C 1.34375 -1.910156 1.410156 -2.082031 1.546875 -2.21875 C 1.679688 -2.363281 1.835938 -2.4375 2.015625 -2.4375 C 2.117188 -2.4375 2.21875 -2.414062 2.3125 -2.375 C 2.65625 -2.226562 3.0625 -2.113281 3.53125 -2.03125 C 4 -1.957031 4.445312 -1.921875 4.875 -1.921875 C 5.945312 -1.921875 6.789062 -2.191406 7.40625 -2.734375 C 8.03125 -3.285156 8.34375 -4.066406 8.34375 -5.078125 C 8.34375 -5.992188 8.097656 -6.695312 7.609375 -7.1875 C 7.117188 -7.6875 6.382812 -7.9375 5.40625 -7.9375 C 4.5625 -7.9375 3.90625 -7.78125 3.4375 -7.46875 C 2.976562 -7.164062 2.75 -6.789062 2.75 -6.34375 C 2.75 -6.101562 2.851562 -5.894531 3.0625 -5.71875 C 3.269531 -5.539062 3.570312 -5.453125 3.96875 -5.453125 C 4.28125 -5.453125 4.535156 -5.367188 4.734375 -5.203125 C 4.929688 -5.035156 5.03125 -4.832031 5.03125 -4.59375 C 5.03125 -4.34375 4.914062 -4.113281 4.6875 -3.90625 C 4.46875 -3.707031 4.171875 -3.609375 3.796875 -3.609375 C 2.898438 -3.609375 2.164062 -3.847656 1.59375 -4.328125 C 1.03125 -4.804688 0.75 -5.507812 0.75 -6.4375 C 0.75 -7.03125 0.96875 -7.597656 1.40625 -8.140625 C 1.84375 -8.691406 2.421875 -9.140625 3.140625 -9.484375 C 3.867188 -9.828125 4.648438 -10 5.484375 -10 C 7.097656 -10 8.3125 -9.566406 9.125 -8.703125 C 9.945312 -7.835938 10.359375 -6.628906 10.359375 -5.078125 C 10.359375 -4.023438 10.128906 -3.109375 9.671875 -2.328125 C 9.222656 -1.546875 8.585938 -0.941406 7.765625 -0.515625 C 6.941406 -0.0859375 6 0.125 4.9375 0.125 Z M 4.9375 0.125 "/></g></g></g><g fill="#000000" fill-opacity="1"><g transform="translate(215.125092, 303.636011)"><g><path d="M 2.609375 0.203125 C 2.015625 0.128906 1.550781 -0.015625 1.21875 -0.234375 C 0.894531 -0.460938 0.734375 -0.78125 0.734375 -1.1875 C 0.734375 -1.363281 0.816406 -1.570312 0.984375 -1.8125 C 1.160156 -2.050781 1.375 -2.171875 1.625 -2.171875 C 1.6875 -2.171875 1.90625 -2.144531 2.28125 -2.09375 C 3.070312 -1.96875 3.769531 -1.90625 4.375 -1.90625 C 5.195312 -1.90625 5.847656 -2.117188 6.328125 -2.546875 C 6.804688 -2.984375 7.046875 -3.6875 7.046875 -4.65625 C 7.046875 -5.457031 6.914062 -6.097656 6.65625 -6.578125 C 6.40625 -7.054688 6.023438 -7.398438 5.515625 -7.609375 C 5.078125 -7.773438 4.515625 -7.859375 3.828125 -7.859375 C 3.335938 -7.859375 2.796875 -7.820312 2.203125 -7.75 C 2.109375 -7.738281 1.984375 -7.734375 1.828125 -7.734375 C 1.378906 -7.734375 1.023438 -7.835938 0.765625 -8.046875 C 0.515625 -8.265625 0.378906 -8.535156 0.359375 -8.859375 C 0.347656 -9.128906 0.457031 -9.367188 0.6875 -9.578125 C 0.914062 -9.796875 1.203125 -9.910156 1.546875 -9.921875 C 2.140625 -9.992188 2.789062 -10.03125 3.5 -10.03125 C 4.125 -10.03125 4.773438 -9.988281 5.453125 -9.90625 C 6.597656 -9.75 7.457031 -9.238281 8.03125 -8.375 C 8.601562 -7.519531 8.929688 -6.507812 9.015625 -5.34375 C 9.023438 -5.1875 9.03125 -4.960938 9.03125 -4.671875 C 9.03125 -3.316406 8.707031 -2.210938 8.0625 -1.359375 C 7.425781 -0.515625 6.460938 -0.015625 5.171875 0.140625 C 4.546875 0.210938 3.988281 0.25 3.5 0.25 C 3.1875 0.25 2.890625 0.234375 2.609375 0.203125 Z M 2.609375 0.203125 "/></g></g></g></svg>